PERFORMER "http://www.soundclick.com/bands/3/dicksjazzstuffmusic.htm"
TITLE "Dick Onstenk -- Body And Soul"
FILE "x1.mp3" WAVE
  TRACK 01 AUDIO
    TITLE "x01"
    INDEX 01 00:00:00
  TRACK 02 AUDIO
    TITLE "x02"
    INDEX 01 00:01:00
  TRACK 03 AUDIO
    TITLE "x03"
    INDEX 01 00:02:00
